<svg xmlns="http://www.w3.org/2000/svg" viewBox="0 0 215.76 216.37"><defs><style>.cls-1{fill:#e6e6e6;}.cls-2{fill:#f7931e;}.cls-3{font-size:30px;font-family:Roboto-Regular, Roboto;letter-spacing:0.07em;}.cls-3,.cls-4{fill:#141010;}.cls-4{font-size:64px;font-family:RobotoCondensed-Regular, Roboto Condensed;}.cls-5{fill:#4d4d4d;}</style></defs><g id="Layer_3" data-name="Layer 3"><rect class="cls-1" x="37.32" y="41.46" width="140.89" height="133.69" rx="14.36"/><path class="cls-2" d="M164.12,175.48H51.94a14.36,14.36,0,0,1-11.25-5.43L173.11,45a14.33,14.33,0,0,1,5.36,11.19v105A14.35,14.35,0,0,1,164.12,175.48Z"/><g id="Layer_4" data-name="Layer 4"><text class="cls-3" transform="translate(80.38 150.44)">SEP</text><text class="cls-4" transform="translate(78.1 122.33)">28</text></g></g><g id="Layer_2" data-name="Layer 2"><path class="cls-5" d="M71.93,43.4c-.17,4.28-.56,6.86-.85,7.43a4.69,4.69,0,0,1-3.79,2.29,4.46,4.46,0,0,1-3.71-2.21c-.31-.61-.65-3.1-.85-7.51-.2-4.25,0-6.24,1-7.88a4.48,4.48,0,0,1,3.59-1.84c1.39,0,2.72.32,3.35,1.42C72.36,38.1,72,42.36,71.93,43.4Z"/><path class="cls-5" d="M143.9,43.4c.17,4.28.56,6.86.86,7.43a4.69,4.69,0,0,0,3.79,2.29,4.43,4.43,0,0,0,3.7-2.21c.31-.61.66-3.1.86-7.51.19-4.25,0-6.24-1-7.88a4.44,4.44,0,0,0-3.58-1.84c-1.39,0-2.73.32-3.36,1.42C143.47,38.1,143.86,42.36,143.9,43.4Z"/></g></svg>