<svg xmlns="http://www.w3.org/2000/svg" viewBox="0 0 215 215"><defs><style>.cls-1{fill:#fff;}.cls-2{fill:#e6e6e6;}.cls-3{fill:#f7931e;}.cls-4{font-size:30px;font-family:Roboto-Regular, Roboto;letter-spacing:0.07em;}.cls-4,.cls-5{fill:#141010;}.cls-5{font-size:64px;font-family:RobotoCondensed-Regular, Roboto Condensed;}.cls-6{fill:#4d4d4d;}</style></defs><g id="Layer_5" data-name="Layer 5"><rect class="cls-1" x="-1.73" y="-0.69" width="218.73" height="218.73"/></g><g id="Layer_3" data-name="Layer 3"><rect class="cls-2" x="36.95" y="40.78" width="140.89" height="133.69" rx="14.36"/><path class="cls-3" d="M163.74,174.79H51.56a14.32,14.32,0,0,1-11.24-5.43L172.74,44.26a14.36,14.36,0,0,1,5.36,11.19v105A14.36,14.36,0,0,1,163.74,174.79Z"/><g id="Layer_4" data-name="Layer 4"><text class="cls-4" transform="translate(80 149.75)">SEP</text><text class="cls-5" transform="translate(77.72 121.64)">28</text></g></g><g id="Layer_2" data-name="Layer 2"><path class="cls-6" d="M71.55,42.71c-.17,4.29-.56,6.86-.85,7.43a4.69,4.69,0,0,1-3.79,2.29,4.47,4.47,0,0,1-3.71-2.2c-.31-.62-.65-3.11-.85-7.52-.2-4.24-.05-6.24,1-7.88A4.44,4.44,0,0,1,66.91,33c1.39,0,2.72.32,3.35,1.42C72,37.42,71.59,41.67,71.55,42.71Z"/><path class="cls-6" d="M143.53,42.71c.16,4.29.55,6.86.85,7.43a4.69,4.69,0,0,0,3.79,2.29,4.44,4.44,0,0,0,3.7-2.2c.32-.62.66-3.11.86-7.52.19-4.24.05-6.24-1-7.88A4.44,4.44,0,0,0,148.17,33c-1.39,0-2.73.32-3.36,1.42C143.09,37.42,143.48,41.67,143.53,42.71Z"/></g></svg>