<svg xmlns="http://www.w3.org/2000/svg" viewBox="0 0 170 170"><defs><style>.cls-1{fill:#e6e6e6;}.cls-2{fill:#f7931e;}.cls-3{font-size:30px;font-family:Roboto-Regular, Roboto;letter-spacing:0.07em;}.cls-3,.cls-4{fill:#141010;}.cls-4{font-size:64px;font-family:RobotoCondensed-Regular, Roboto Condensed;}.cls-5{fill:#4d4d4d;}</style></defs><g id="Layer_3" data-name="Layer 3"><rect class="cls-1" x="14.45" y="18.28" width="140.89" height="133.69" rx="14.36"/><path class="cls-2" d="M141.24,152.29H29.06a14.32,14.32,0,0,1-11.24-5.43L150.24,21.76A14.36,14.36,0,0,1,155.6,33v105A14.36,14.36,0,0,1,141.24,152.29Z"/><g id="Layer_4" data-name="Layer 4"><text class="cls-3" transform="translate(57.5 127.25)">SEP</text><text class="cls-4" transform="translate(55.22 99.14)">28</text></g></g><g id="Layer_2" data-name="Layer 2"><path class="cls-5" d="M49.05,20.21c-.17,4.29-.56,6.86-.85,7.43a4.69,4.69,0,0,1-3.79,2.29,4.47,4.47,0,0,1-3.71-2.2c-.31-.62-.65-3.11-.85-7.52-.2-4.24-.05-6.24,1-7.88a4.44,4.44,0,0,1,3.58-1.84c1.39,0,2.72.32,3.35,1.42C49.48,14.92,49.09,19.17,49.05,20.21Z"/><path class="cls-5" d="M121,20.21c.16,4.29.55,6.86.85,7.43a4.69,4.69,0,0,0,3.79,2.29,4.44,4.44,0,0,0,3.7-2.2c.32-.62.66-3.11.86-7.52.19-4.24.05-6.24-1-7.88a4.44,4.44,0,0,0-3.58-1.84c-1.39,0-2.73.32-3.36,1.42C120.59,14.92,121,19.17,121,20.21Z"/></g></svg>